<svg width="193" height="28" viewBox="0 0 193 28" fill="none" xmlns="http://www.w3.org/2000/svg">
<g filter="url(#filter0_i_5_58)">
<path d="M8.52 6.2V6.536C8.52 6.696 8.44 6.776 8.28 6.776H4.56V22.784C4.56 22.896 4.536 22.96 4.488 22.976C4.44 22.992 4.272 23 3.984 23V6.776H0.12V6.44C0.12 6.28 0.2 6.2 0.36 6.2H8.52Z" fill="#D8DBE2"/>
</g>
<path d="M46.632 6.584C46.632 6.392 46.656 6.28 46.704 6.248C46.768 6.216 46.944 6.2 47.232 6.2V22.76C47.232 22.872 47.2 22.944 47.136 22.976C47.088 22.992 46.92 23 46.632 23V6.584Z" fill="#D8DBE2"/>
<path d="M66.176 23.24C65.488 23.24 64.904 23.176 64.424 23.048C63.96 22.92 63.608 22.768 63.368 22.592C63.128 22.416 63.008 22.264 63.008 22.136C63.008 21.944 63.104 21.816 63.296 21.752C63.584 22.04 63.952 22.264 64.4 22.424C64.864 22.584 65.472 22.664 66.224 22.664C67.392 22.664 68.264 22.352 68.84 21.728C69.416 21.088 69.704 20.224 69.704 19.136C69.704 18.32 69.552 17.6 69.248 16.976C68.96 16.336 68.448 15.648 67.712 14.912L64.904 12.32C64.312 11.728 63.864 11.176 63.56 10.664C63.256 10.136 63.104 9.576 63.104 8.984C63.104 8.088 63.456 7.36 64.16 6.8C64.864 6.24 65.808 5.96 66.992 5.96C67.616 5.96 68.144 6.008 68.576 6.104C69.024 6.2 69.352 6.32 69.56 6.464C69.784 6.608 69.896 6.744 69.896 6.872C69.896 7.032 69.824 7.168 69.68 7.28C69.424 7.072 69.056 6.896 68.576 6.752C68.096 6.592 67.52 6.512 66.848 6.512C65.904 6.512 65.136 6.744 64.544 7.208C63.968 7.656 63.68 8.24 63.68 8.96C63.68 9.472 63.808 9.944 64.064 10.376C64.336 10.808 64.728 11.28 65.24 11.792L68.384 14.744C69.088 15.448 69.576 16.12 69.848 16.76C70.136 17.4 70.28 18.152 70.28 19.016C70.28 20.328 69.936 21.36 69.248 22.112C68.56 22.864 67.536 23.24 66.176 23.24Z" fill="#D8DBE2"/>
<path d="M93.808 6.44C93.808 6.328 93.832 6.264 93.88 6.248C93.944 6.216 94.112 6.2 94.384 6.2V22.76C94.384 22.872 94.36 22.944 94.312 22.976C94.264 22.992 94.096 23 93.808 23V14.048H87.208V22.76C87.208 22.872 87.184 22.944 87.136 22.976C87.088 22.992 86.92 23 86.632 23V6.44C86.632 6.328 86.656 6.264 86.704 6.248C86.752 6.216 86.92 6.2 87.208 6.2V13.472H93.808V6.44Z" fill="#D8DBE2"/>
<path d="M120.224 22.88C120.224 22.976 120.152 23.024 120.008 23.024C119.832 23.024 119.704 23.016 119.624 23L118.184 17.912H112.28L110.912 22.856C110.896 22.936 110.864 22.984 110.816 23C110.768 23.016 110.688 23.024 110.576 23.024L110.24 23L115.04 6.128C115.04 6.096 115.08 6.08 115.16 6.08C115.272 6.08 115.344 6.096 115.376 6.128L120.2 22.76L120.224 22.88ZM118.016 17.336L116.432 11.72C115.648 8.856 115.24 7.264 115.208 6.944C115.16 7.328 114.752 8.92 113.984 11.72L112.424 17.336H118.016Z" fill="#D8DBE2"/>
<g filter="url(#filter1_i_5_58)">
<path d="M27.496 15.416C27.992 16.104 28.504 17.072 29.032 18.32C29.576 19.552 29.952 21.016 30.16 22.712V22.808C30.16 22.872 30.144 22.92 30.112 22.952C30.08 22.968 30.016 22.984 29.92 23H29.608C29.304 20.952 28.872 19.312 28.312 18.08C27.752 16.848 27.264 16 26.848 15.536C26.736 15.552 26.552 15.56 26.296 15.56H24.208V22.76C24.208 22.872 24.184 22.944 24.136 22.976C24.088 22.992 23.92 23 23.632 23V6.44C23.632 6.392 23.648 6.344 23.68 6.296C23.712 6.232 23.776 6.2 23.872 6.2H26.488C27.88 6.2 28.88 6.616 29.488 7.448C30.112 8.264 30.424 9.304 30.424 10.568C30.424 11.928 30.168 13.024 29.656 13.856C29.16 14.672 28.44 15.192 27.496 15.416ZM26.272 14.984C27.472 14.984 28.368 14.592 28.96 13.808C29.552 13.024 29.848 11.944 29.848 10.568C29.848 9.432 29.584 8.52 29.056 7.832C28.528 7.128 27.632 6.776 26.368 6.776H24.208V14.984H26.272Z" fill="#D8DBE2"/>
</g>
<path d="M151.608 6.2V22.76C151.608 22.872 151.584 22.944 151.536 22.976C151.488 22.992 151.32 23 151.032 23V14.792V8.408L148.92 15.128L147.408 19.664C147.36 19.824 147.272 19.904 147.144 19.904H146.784L145.32 15.128C145.144 14.568 144.832 13.592 144.384 12.2C143.936 10.808 143.544 9.584 143.208 8.528V14.552V22.76C143.208 22.872 143.184 22.944 143.136 22.976C143.088 22.992 142.92 23 142.632 23V6.44C142.632 6.28 142.712 6.2 142.872 6.2H143.136L146.136 15.968L147.096 19.088L148.032 16.064L151.032 6.44C151.032 6.408 151.048 6.36 151.08 6.296C151.128 6.232 151.192 6.2 151.272 6.2H151.608Z" fill="#D8DBE2"/>
<path d="M174.728 22.424C174.728 22.68 174.72 22.84 174.704 22.904C174.688 22.968 174.632 23 174.536 23H168.704V6.44C168.704 6.392 168.72 6.344 168.752 6.296C168.784 6.232 168.848 6.2 168.944 6.2H174.68C174.68 6.456 174.672 6.616 174.656 6.68C174.64 6.744 174.6 6.776 174.536 6.776H169.28V13.496H174.2C174.2 13.752 174.192 13.912 174.176 13.976C174.16 14.04 174.104 14.072 174.008 14.072H169.28V22.424H174.728Z" fill="#D8DBE2"/>
<path d="M190.632 6.584C190.632 6.392 190.656 6.28 190.704 6.248C190.768 6.216 190.944 6.2 191.232 6.2V22.76C191.232 22.872 191.2 22.944 191.136 22.976C191.088 22.992 190.92 23 190.632 23V6.584Z" fill="#D8DBE2"/>
<defs>
<filter id="filter0_i_5_58" x="0.120117" y="6.2" width="8.3999" height="18.8" filterUnits="userSpaceOnUse" color-interpolation-filters="sRGB">
<feFlood flood-opacity="0" result="BackgroundImageFix"/>
<feBlend mode="normal" in="SourceGraphic" in2="BackgroundImageFix" result="shape"/>
<feColorMatrix in="SourceAlpha" type="matrix" values="0 0 0 0 0 0 0 0 0 0 0 0 0 0 0 0 0 0 127 0" result="hardAlpha"/>
<feOffset dy="2"/>
<feGaussianBlur stdDeviation="2"/>
<feComposite in2="hardAlpha" operator="arithmetic" k2="-1" k3="1"/>
<feColorMatrix type="matrix" values="0 0 0 0 0.215686 0 0 0 0 0.247059 0 0 0 0 0.317647 0 0 0 0.1 0"/>
<feBlend mode="normal" in2="shape" result="effect1_innerShadow_5_58"/>
</filter>
<filter id="filter1_i_5_58" x="23.6321" y="6.2" width="6.79199" height="18.8" filterUnits="userSpaceOnUse" color-interpolation-filters="sRGB">
<feFlood flood-opacity="0" result="BackgroundImageFix"/>
<feBlend mode="normal" in="SourceGraphic" in2="BackgroundImageFix" result="shape"/>
<feColorMatrix in="SourceAlpha" type="matrix" values="0 0 0 0 0 0 0 0 0 0 0 0 0 0 0 0 0 0 127 0" result="hardAlpha"/>
<feOffset dy="2"/>
<feGaussianBlur stdDeviation="2"/>
<feComposite in2="hardAlpha" operator="arithmetic" k2="-1" k3="1"/>
<feColorMatrix type="matrix" values="0 0 0 0 0.215686 0 0 0 0 0.247059 0 0 0 0 0.317647 0 0 0 0.1 0"/>
<feBlend mode="normal" in2="shape" result="effect1_innerShadow_5_58"/>
</filter>
</defs>
</svg>
